<?xml version="1.0" standalone="no"?>
<!DOCTYPE svg PUBLIC "-//W3C//DTD SVG 1.1//EN" "http://www.w3.org/Graphics/SVG/1.1/DTD/svg11.dtd">
<svg xmlns="http://www.w3.org/2000/svg">
<metadata>Generated by Fontastic.me</metadata>
<defs>
<font id="cbuilder" horiz-adv-x="512">
<font-face font-family="cbuilder" units-per-em="512" ascent="480" descent="-32"/>
<missing-glyph horiz-adv-x="512" />

<glyph glyph-name="add-page" unicode="&#97;" d="M45 81l0 346c0 23 19 40 40 40l229 0c23 0 40-19 40-40l43 0c0 47-39 83-83 83l-229 0c-47 0-83-36-83-83l0-346c0-47 39-83 83-83l113 0 0 43-113 0c-23 0-40 19-40 40z m290 230c-85 0-156-70-156-155 0-86 71-156 156-156 85 0 156 70 156 156 0 85-71 155-156 155z m0-270c-62 0-113 51-113 113 0 61 51 113 113 113 62 0 113-52 113-113 0-62-51-113-113-113z m21 179l-42 0 0-43-43 0 0-43 43 0 0-42 42 0 0 42 43 0 0 43-43 0z"/>
<glyph glyph-name="btn" unicode="&#98;" d="M348 416l-179 0c-90 0-165-75-165-164 0-90 75-165 165-165l181 0c89 0 164 75 164 165 0 89-77 164-166 164z m0-292l-179 0c-71 0-128 57-128 128 0 70 57 128 128 128l181 0c70 0 128-58 128-128 0-71-60-128-130-128z m0 128c0-50-40-90-90-90-49 0-89 40-89 90 0 49 40 89 89 89 50 0 90-40 90-89z"/>
<glyph glyph-name="bucket" unicode="&#99;" d="M412 375c-13 77-77 137-158 137-79 0-145-60-156-137l-53 0 55-364 310 0 55 364z m-158 116c68 0 124-49 134-116l-269 0c11 67 69 116 135 116z m119-438l-236 0-43 282 324 0z m-200 220c0-11-9-19-19-19-11 0-20 8-20 19 0 11 9 19 20 19 10 0 19-8 19-19z m198 0c0-11-8-19-19-19-11 0-19 8-19 19 0 11 8 19 19 19 11 0 19-8 19-19z"/>
<glyph glyph-name="close" unicode="&#100;" d="M491 414l-56 55-179-177-179 177-56-55 180-179-180-177 56-58 179 179 179-179 56 58-180 177z"/>
<glyph glyph-name="compo" unicode="&#101;" d="M0 0l299 0 0 299-299 0z m47 252l205 0 0-205-205 0z m139 254l0-165 164 0 0-162 162 0 0 327z"/>
<glyph glyph-name="dash" unicode="&#102;" d="M435 365c-42 42-98 68-156 72l0 75-46 0 0-75c-58-4-114-30-156-72-98-98-98-260 0-359 8-8 23-8 32 0 8 9 8 24 0 32-81 81-81 212 0 293 34 34 79 53 124 59l0-177c-7-2-15-6-20-12-23-24-23-62 0-86 24-23 62-23 86 0 23 24 23 62 0 86-7 6-13 10-20 12l0 177c45-4 90-25 124-59 81-81 81-212 0-293-8-8-8-23 0-32 4-4 11-6 17-6 7 0 13 2 17 6 96 99 96 261-2 359z"/>
<glyph glyph-name="desktop" unicode="&#103;" d="M465 491l-412 0c-25 0-47-22-47-47l0-280c0-25 22-47 47-47l182 0 0-66-79 0 0-47 198 0 0 47-72 0 0 66 181 0c26 0 47 22 47 47l0 280c2 25-19 47-45 47z m0-329c0 0 0-2 0 0l-412-2c0 0-2 0-2 2l0 282c0 0 0 2 2 2l410 0c0 0 2 0 2-2z"/>
<glyph glyph-name="export" unicode="&#104;" d="M454 49l-392 0 0 395 196 0 0 47-245 0 0-489 488 0 0 258-47 0z m-288 92l0-7 47 0 0 7c0 124 96 226 216 239l-73-73 34-34 122 122-122 121-34-34 56-55c-139-22-246-141-246-286z"/>
<glyph glyph-name="heading" unicode="&#105;" d="M192 279l-130 0 0 152-60 0 0-346 60 0 0 158 130 0 0-158 58 0 0 346-58 0z m111 152l209 0 0-105-209 0z m0-230l209 0 0-41-209 0z m0 87l209 0 0-41-209 0z m0-175l209 0 0-40-209 0z"/>
<glyph glyph-name="help" unicode="&#106;" d="M439 337c0 98-78 177-177 177-98 0-177-79-177-177l73 0c0 58 47 105 104 105 58 0 105-47 105-105 0-58-47-104-105-104l0-5-36 0 0-136 73 0 0 70c79 19 140 90 140 175z m-213-284l73 0 0-53-73 0z"/>
<glyph glyph-name="icons" unicode="&#107;" d="M258 512c-139 0-252-113-252-254 0-141 113-254 254-254 139 0 254 113 254 254 0 141-115 254-256 254z m0-469c-117 0-215 98-215 215 0 117 98 218 215 218 120 0 216-96 216-216 0-119-96-217-216-217z m32 260l-32 96-30-96-102 0 83-60-32-98 81 60 83-60-32 98 84 60z"/>
<glyph glyph-name="icontxt" unicode="&#108;" d="M96 228c53 0 96 43 96 96 0 54-43 96-96 96-53 0-96-42-96-96 0-53 43-96 96-96z m0 179c45 0 81-36 81-81 0-44-36-81-81-81-45 0-81 37-81 81 0 45 36 81 81 81z m-32-125l32 23 32-23-13 36 32 23-38 0-13 37-11-37-40 0 32-23z m198 119l250 0 0-40-250 0z m0-85l250 0 0-41-250 0z m-100-103l350 0 0-40-350 0z m-162-94l512 0 0-40-512 0z"/>
<glyph glyph-name="img" unicode="&#109;" d="M-2 476l0-433 514 0 0 433z m478-39l0-277-92 102-92-61-126 153-132-160 0 243z m-62-83c0-19-15-34-34-34-19 0-34 15-34 34 0 19 15 34 34 34 19 0 34-15 34-34z"/>
<glyph glyph-name="link" unicode="&#110;" d="M109 267c0-54 40-103 109-103 40 0 74 15 96 41l2 0 4-34 94 0c-4 19-4 49-4 81l0 117c0 79-37 143-148 143-59 0-106-17-130-30l19-66c22 13 58 26 92 26 51 0 60-26 60-43l0-4c-117 0-194-43-194-128z m198 62l0-37c0-6 0-13-2-17-6-21-28-38-53-38-24 0-41 13-41 40 0 39 41 52 96 52z m-258-254l399 0 0-73-399 0z"/>
<glyph glyph-name="menu" unicode="&#111;" d="M0 474l512 0 0-75-512 0z m0-367l512 0 0-75-512 0z m0 183l407 0 0-75-407 0z"/>
<glyph glyph-name="on-site" unicode="&#112;" d="M6 506l506 0 0-190-506 0z m0-259l156 0 0-247-156 0z m220-247l286 0 0 247-286 0z m45 201l194 0 0-156-194 0z"/>
<glyph glyph-name="para" unicode="&#113;" d="M284 348c0 36-17 68-41 87-25 19-62 30-115 30-51 0-90-4-115-8l0-372 85 0 0 135c9-2 17-2 30-2 51 0 94 12 124 40 19 21 32 53 32 90z m-160-64c-13 0-22 0-28 2l0 113c6 2 17 4 36 4 43 0 66-21 66-55 0-41-27-64-74-64z m237 70l142 0 0-40-142 0z m-45 105l187 0 0-41-187 0z m-45-209l232 0 0-41-232 0z m-94-105l326 0 0-40-326 0z"/>
<glyph glyph-name="pin" unicode="&#114;" d="M512 320l-192 192c-26-34-30-79-15-117l-96-88c-36 13-77 9-109-17l81-81-172-173-5-30 30 5 173 172 83-83c24 32 30 73 17 107l88 98c38-15 83-11 117 15z"/>
<glyph glyph-name="power" unicode="&#115;" d="M437 431c-100 100-262 100-362 0-49-47-77-113-77-181 0-69 28-133 75-182l34 34c-81 81-81 214 0 297 81 81 215 81 296 0 81-81 81-216 0-297l34-34c49 49 75 113 75 182 0 68-28 134-75 181z m-207-34l47 0 0-382-47 0z"/>
<glyph glyph-name="preview" unicode="&#116;" d="M288 361c-92 0-171-50-213-124 42-75 121-124 213-124 92 0 171 49 213 124-42 74-121 124-213 124z m0-201c-62 0-122 30-158 79 28 34 66 60 109 70-17-15-28-36-28-59 0-45 36-79 79-79 43 0 79 36 79 79 0 23-8 42-26 57 41-13 77-36 103-68-36-49-96-79-158-79z m53-115l-296 0 0 412 296 0 0-54c15-2 30-6 45-13l0 111-386 0 0-501 388 0 0 87c-15-4-32-8-45-10l0-32z"/>
<glyph glyph-name="publish" unicode="&#117;" d="M461 503l-398 0c-28 0-49-24-49-49l0-37 23 0 0 34c0 14 12 26 26 26l398 0c14 0 25-12 25-26l0-290c0-14-11-26-25-26l-398 0c-14 0-26 12-26 26l0 32-23 0 0-32c0-28 23-49 49-49l398 0c28 0 49 23 49 49l0 290c0 28-21 52-49 52z m-186-394l-24 0 0-79-93 0 0-23 193 0 0 23-76 0z m-196 187l161 0-35-35 18-17 61 63-61 63-18-19 35-32-161 0z"/>
<glyph glyph-name="tab" unicode="&#118;" d="M433 510l-333 0c-32 0-57-21-57-47l0-410c0-25 25-47 57-47l337 0c30 0 54 20 56 45l0 414c-4 26-28 45-60 45z m2-457c0 0 0-2-2-2l-333 0c-2 0-2 0-2 2l0 410c0 0 0 2 2 2l335 0c2 0 2 0 2-2l0-410z m-138 71c0-20-17-37-37-37-20 0-36 17-36 37 0 20 16 36 36 36 20 0 37-16 37-36z"/>
<glyph glyph-name="tab-1" unicode="&#119;" d="M401 510l-279 0c-26 0-47-21-47-47l0-410c0-25 21-47 47-47l279 0c26 0 45 20 47 45l0 414c-2 26-21 45-47 45z m2-457c0-2-2-2 0 0l-51-2-230 0c0 0-3 0-3 2l0 410c0 0 0 2 3 2l279 0c0 0 2 0 2-2z m-106 71c0-20-17-37-37-37-20 0-36 17-36 37 0 20 16 36 36 36 20 0 37-16 37-36z"/>
<glyph glyph-name="underline" unicode="&#120;" d="M254 98c96 0 173 77 173 173l0 228-58 0 0-228c0-64-51-115-115-115-64 0-115 51-115 115l0 228-58 0 0-228c0-96 77-173 173-173z m-211-28l416 0 0-70-416 0z"/>
<glyph glyph-name="icon-section" unicode="&#121;" d="M4 419l0-316 508 0 0 316z m473-281l-438 0 0 246 438 0z m-381 179l57 0 0-112-57 0z m89 0l57 0 0-112-57 0z m146-111l89 0 0 111-146 0 0-111z"/>
<glyph glyph-name="left-nav" unicode="&#65;" d="M229 387l209 0 0-182-209 0z m-138 0l101 0 0-182-101 0z m359 98l-383 0c-26 0-47-20-47-47l0-280c0-26 21-47 47-47l180 0 0-70-89 0 0-22 187 0 0 23-76 0 0 70 180 0c27 0 48 21 48 47l0 279c1 26-20 47-47 47z m26-327c0-14-11-25-26-25l-383 0c-14 0-25 11-25 25l0 280c0 14 11 26 25 26l383 0c15 0 26-12 26-26z"/>
<glyph glyph-name="full-width" unicode="&#66;" d="M455 487l-386 0c-26 0-47-21-47-47l0-282c0-26 22-47 47-47l181 0 0-70-90 0 0-23 189 0 0 23-76 0 0 70 182 0c27 0 48 22 48 47l0 281c0 27-22 48-48 48z m-411-48c0 14 11 26 25 26l386 0c14 0 26-12 26-26l0-62-436 0 0 62z m411-306l-386 0c-14 0-25 11-25 25l0 57 436 0 0-57c0-14-12-25-25-25z"/>
<glyph glyph-name="right-nav" unicode="&#67;" d="M92 385l206 0 0-179-206 0z m243 0l99 0 0-179-99 0z m112 97l-378 0c-25 0-46-21-46-47l0-275c0-25 21-46 46-46l178 0 0-68-89 0 0-22 184 0 0 22-74 0 0 68 178 0c25 0 46 21 46 46l0 275c1 26-20 47-45 47z m24-322c0-13-11-24-24-24l-378 0c-13 0-24 11-24 24l0 275c0 13 11 25 24 25l378 0c13 0 24-12 24-25z"/>
<glyph glyph-name="tick" unicode="&#68;" d="M442 439l-249-247-128 128-49-51 128-128 51-51 51 50 247 248z"/>
<glyph glyph-name="stng" unicode="&#69;" d="M485 310l-36 6c-3 12-8 23-14 35l21 29c9 13 8 30-4 41l-32 32c-6 6-14 10-23 10-6 0-13-2-18-6l-28-22c-12 6-24 12-36 15l-6 35c-3 16-16 27-31 27l-45 0c-15 0-28-11-31-27l-7-36c-12-3-23-8-35-14l-29 21c-6 4-12 6-18 6-9 0-16-3-23-10l-32-32c-12-11-12-28-4-41l22-29c-6-12-11-23-14-35l-35-6c-16-3-27-16-27-31l0-45c0-15 11-28 27-31l36-7c3-12 8-23 14-35l-21-29c-9-12-8-30 4-41l32-32c6-6 14-10 23-10 6 0 13 2 18 6l30 22c11-6 22-11 34-14l6-36c3-16 16-27 31-27l46 0c15 0 28 11 31 27l6 36c12 3 23 8 35 14l29-21c6-4 12-6 18-6 9 0 16 3 23 10l32 32c12 11 12 28 4 41l-23 29c6 12 11 23 14 35l36 6c16 3 27 16 27 31l0 45c0 16-11 29-27 32z m-1-77c0-1-1-3-2-3l-46-7c-6-1-10-5-11-11-4-16-11-30-19-44-3-5-3-12 1-16l26-37c1-1 1-3 0-4l-32-32c-1-1-2-1-2-1-1 0-1 0-2 1l-37 26c-4 3-10 4-16 1-14-8-29-14-44-19-6-1-10-5-11-11l-7-45c0-1-1-2-3-2l-45 0c-1 0-3 1-3 2l-8 45c-1 6-5 10-11 11-15 4-30 11-43 18-2 1-5 2-8 2-3 0-6-1-8-3l-37-26c-1 0-1-1-2-1 0 0-1 0-2 1l-32 32c-1 1-1 3 0 4l26 37c3 4 4 11 1 16-8 14-15 29-19 44-2 6-6 10-11 11l-46 7c-1 0-2 1-2 3l0 45c0 1 1 3 2 3l45 7c6 1 10 5 11 11 4 16 11 31 18 44 3 5 3 12-1 15l-26 37c-1 1-1 3 0 4l32 32c1 1 2 1 2 1 1 0 1 0 2-1l37-26c4-3 11-4 16-1 14 8 29 15 44 19 6 2 10 6 11 11l7 46c0 1 1 2 3 2l45 0c1 0 3-1 3-2l8-43c1-6 5-10 11-11 16-4 31-11 45-19 5-3 12-3 16 1l37 26c1 0 1 1 2 1 0 0 1 0 2-1l32-32c1-1 1-3 0-4l-26-37c-3-4-4-10-1-16 8-14 14-29 19-44 1-6 5-10 11-11l45-7c1 0 2-1 2-3z m-228 134c-61 0-111-49-111-111 0-61 49-111 111-111 61 0 111 49 111 111 0 61-50 111-111 111z m0-193c-45 0-82 37-82 82 0 45 37 82 82 82 45 0 82-37 82-82 0-45-36-82-82-82z"/>
<glyph glyph-name="tarw" unicode="&#70;" d="M418 345l-162 162-162-162 35-35 102 102 0-412 50 0 0 412 102-102z"/>
<glyph glyph-name="darw" unicode="&#71;" d="M94 162l162-162 162 162-35 35-102-102 0 412-50 0 0-412-102 102z"/>
<glyph glyph-name="drg" unicode="&#72;" d="M197 392l30 29 0-82c0-13 9-22 22-22 14 0 23 9 23 22l0 82 30-29c4-5 9-7 16-7 6 0 11 2 16 7 9 9 9 22 0 31l-65 64c-4 7-10 11-20 11-9 0-16-4-20-11l-64-64c-10-10-10-23 0-31 9-9 23-9 32 0z m105-286l-30-29 0 81c0 14-9 23-23 23-13 0-22-9-22-23l0-81-30 29c-9 10-23 10-31 0-10-9-10-23 0-31l64-65c4-6 11-10 20-10 10 0 16 4 20 10l65 65c9 9 9 23 0 31-11 10-25 10-33 0z m197 143c0 9-4 16-11 20l-64 65c-10 9-23 9-31 0-9-10-10-23 0-32l29-29-82 0c-13 0-22-9-22-23 0-13 9-22 22-22l82 0-29-30c-10-9-10-23 0-31 4-5 9-7 16-7 6 0 11 2 16 7l64 64c5 2 10 9 10 18z m-422-22l81 0c14 0 23 9 23 22 0 14-9 23-23 23l-81 0 29 30c10 9 10 22 0 31-9 9-23 9-31 0l-65-65c-6-3-10-10-10-19 0-8 4-16 10-20l65-64c5-5 9-7 16-7 7 0 11 2 16 7 10 9 10 23 0 31z"/>
<glyph glyph-name="stl" unicode="&#73;" d="M264 495c-137 0-247-111-247-248 0-136 110-247 247-247 136 0 247 111 247 247 0 137-110 248-247 248z m0-449c-111 0-201 91-201 201 0 111 90 201 201 201 111 0 201-90 201-201 0-110-90-201-201-201z m1 363l0-316c88 0 158 71 158 157 0 87-70 159-158 159z"/>
<glyph glyph-name="mxr" unicode="&#74;" d="M198 464l0 29-116 0 0-29-82 0 0-58 82 0 0-30 116 0 0 30 314 0 0 58z m215-145l-116 0 0-30-297 0 0-58 297 0 0-29 116 0 0 29 99 0 0 58-99 0z m-157-175l-117 0 0-29-139 0 0-58 139 0 0-30 117 0 0 30 256 0 0 58-256 0z"/>
<glyph glyph-name="cpy" unicode="&#75;" d="M0 2l305 0 0 304-305 0z m47 257l211 0 0-211-211 0z m120 253l0-161 47 0 0 114 251 0 0-256-108 0 0-49 155 0 0 352z"/>
<glyph glyph-name="col" unicode="&#76;" d="M0 512l161 0 0-185-161 0z m351-257l161 0 0-256-161 0z m-351 0l255 0 0-256-255 0z m255 257l257 0 0-185-257 0z"/>
<glyph glyph-name="paste" unicode="&#77;" d="M169 512l0-188 48 0 0 140 254 0 0-285-109 0 0-47 158 0 0 380z m155-78l-34-34 56-55c-140-20-248-140-248-285l0-6 48 0 0 6c0 125 96 227 217 240l-73-73 34-35 122 121z m-62-386l-214 0 0 214 107 0 0 48-155 0 0-310 310 0 0 155-48 0z"/>
<glyph glyph-name="del" unicode="&#78;" d="M405 51l-283 0 0 302-53 0 0-356 390 0 0 356-54 0z m-67 410l0 51-147 0 0-51-164 0 0-54 474 0 0 54z m-101-123l54 0 0-239-54 0z"/>
<glyph glyph-name="algn-c" unicode="&#122;" d="M26 512l460 0 0-72-460 0z m51-212l358 0 0-72-358 0z m-77-221l512 0 0-71-512 0z"/>
<glyph glyph-name="algn-l" unicode="&#79;" d="M0 512l512 0 0-72-512 0z m0-212l256 0 0-72-256 0z m0-221l384 0 0-71-384 0z"/>
<glyph glyph-name="algn-r" unicode="&#80;" d="M0 512l512 0 0-72-512 0z m256-212l256 0 0-72-256 0z m-128-221l384 0 0-71-384 0z"/>
<glyph glyph-name="v-algn-b" unicode="&#81;" d="M512 8l-512 0 0 128 512 0z m-77 462l-384 0 0 41 384 0z m0-183l-384 0 0 41 384 0z"/>
<glyph glyph-name="v-algn-m" unicode="&#82;" d="M0 312l512 0 0-128-512 0z m77-261l384 0 0-41-384 0z m0 435l384 0 0-41-384 0z"/>
<glyph glyph-name="v-algn-t" unicode="&#83;" d="M0 512l512 0 0-128-512 0z m77-461l384 0 0-41-384 0z m0 185l384 0 0-41-384 0z"/>
<glyph glyph-name="box-width" unicode="&#84;" d="M438 477l-369 0c-25 0-45-21-45-46l0-268c0-26 21-45 45-45l174 0 0-68-87 0 0-22 181 0 0 22-73 0 0 68 173 0c26 0 46 20 46 45l0 267c1 26-20 47-45 47z m24-315c0-13-11-25-25-25l-368 0c-13 0-24 11-24 25l0 268c1 14 11 25 24 25l369 0c13 0 25-10 25-25l0-268z m-338 250l250 0 0-156-250 0z m0-179l250 0 0-55-250 0z"/>
<glyph glyph-name="chstl" unicode="&#85;" d="M507 208l-85 85-86-85 27-28 38 39 0-133-354 0 0-39 393 0 0 174 41-41z m-504 76l85-86 86 86-27 28-38-39 0 133 354 0 0 39-393 0 0-174-40 41z"/>
<glyph glyph-name="arw-t" unicode="&#86;" d="M512 169l-82-82-174 176-174-176-82 82 256 256z"/>
<glyph glyph-name="arw-r" unicode="&#87;" d="M169 0l-82 82 176 174-176 174 82 82 256-256z"/>
<glyph glyph-name="arw-l" unicode="&#88;" d="M343 512l82-82-176-174 176-174-82-82-256 256z"/>
<glyph glyph-name="arw-d" unicode="&#89;" d="M0 343l82 82 174-176 174 176 82-82-256-256z"/>
<glyph glyph-name="hdr-stk" unicode="&#90;" d="M485 273l-447 0c-2 0-3 2-3 4l0 104c0 2 1 3 3 3l448 0c3 0 4-1 4-3l0-104c-1-2-2-4-5-4z m27-238l-511 0 0 430 511 0z m-476 37l440 0 0 356-440 0z m125-14l0 100 21-21 10 11-40 38-38-38 11-11 20 21 0-100z m256 0l0 100 21-21 10 11-40 38-38-38 11-11 20 21 0-100z"/>
<glyph glyph-name="hdr-abs" unicode="&#48;" d="M450 273l-388 0c-3 0-4 2-4 4l0 70c0 1 1 2 4 2l389 0c3 0 4-1 4-3l0-70c-1-1-2-3-5-3z m60-203l-509 0 0 344 510 0 0-344z m-474 35l439 0 0 274-439 0z"/>
<glyph glyph-name="hdr-fx" unicode="&#49;" d="M474 192l-447 0c-3 0-4 1-4 3l0 104c0 2 1 4 4 4l448 0c2 0 3-2 3-4l0-104c-1-2-2-3-4-3z m38-157l-511 0 0 430 511 0z m-476 37l440 0 0 356-440 0z m125-37l0 100 21-21 10 11-40 38-38-38 11-11 20 21 0-100z m240 430l0-100-20 21-11-10 38-39 40 39-10 10-21-21 0 100z"/>
<glyph glyph-name="hdr-nml" unicode="&#50;" d="M509 436l-507 0c-1 0-2 2-2 4l0 69c0 2 1 3 2 3l507 0c2 0 3-1 3-3l0-69c0-2-1-4-3-4z m0-400l-508 0 0 345 508 0z m-473 36l436 0 0 272-436 0z"/>
<glyph glyph-name="logo-r" unicode="&#51;" d="M408 223l80 0c14 0 24 12 24 25l0 21c0 14-12 24-24 24l-80 0c-14 0-24-11-24-24l0-21c0-14 10-25 24-25z m-384 0l273 0c14 0 24 12 24 25l0 21c0 14-11 24-24 24l-273 0c-14 0-24-11-24-24l0-21c0-14 12-25 24-25z"/>
<glyph glyph-name="logo-l" unicode="&#52;" d="M104 223l-80 0c-14 0-24 12-24 25l0 21c0 14 12 24 24 24l80 0c14 0 24-11 24-24l0-21c0-14-10-25-24-25z m384 0l-274 0c-14 0-24 12-24 25l0 21c0 14 11 24 24 24l272 0c14 0 25-11 25-24l0-21c1-14-11-25-23-25z"/>
<glyph glyph-name="logo-c" unicode="&#53;" d="M211 268l79 0c14 0 24 11 24 24l0 45c0 14-11 25-24 25l-79 0c-14 0-25-12-25-25l0-45c0-13 11-24 25-24z m-187-114l462 0c14 0 25 11 25 24l0 21c0 14-12 24-25 24l-462 0c-14 0-24-11-24-24l0-21c0-14 12-24 24-24z"/>
<glyph glyph-name="nav-tred" unicode="&#54;" d="M148 204l-86 0c-3 0-4 1-4 3l0 70c0 1 1 2 4 2l87 0c2 0 3-1 3-3l0-70c-1-1-2-2-4-2z m157 0l-87 0c-3 0-4 1-4 3l0 70c0 2 1 3 4 3l87 0c2 0 3-1 3-3l0-70c0-2-1-3-3-3z m157 0l-87 0c-3 0-4 1-4 3l0 70c0 2 1 3 4 3l87 0c2 0 3-1 3-3l0-70c0-2-1-3-3-3z"/>
<glyph glyph-name="nav-ham" unicode="&#55;" d="M465 128l0-87c0-3-1-4-3-4l-377 0c-2 0-4 1-4 4l0 87c0 2 2 3 4 3l378 0c1-1 2-2 2-3z m0 157l0-87c0-3-1-4-3-4l-377 0c-2 0-4 3-4 4l0 87c0 2 2 4 4 4l378 0c1-2 2-3 2-4z m0 157l0-87c0-2-1-4-3-4l-377 0c-2 0-4 2-4 4l0 87c0 3 2 4 4 4l378 0c1-1 2-3 2-4z"/>
</font>
</defs>
</svg>
